<svg width="18" height="18" viewBox="0 0 18 18" fill="none" xmlns="http://www.w3.org/2000/svg">
<path d="M14.63 0H3.38C1.13 0 0 1.12 0 3.37V14.62C0 16.87 1.13 18 3.38 18H14.63C16.88 18 18 16.87 18 14.62V3.37C18 1.12 16.88 0 14.63 0ZM13.03 7.20001L8.35999 11.86C8.21999 12.01 8.03002 12.08 7.83002 12.08C7.64002 12.08 7.44999 12.01 7.29999 11.86L4.96997 9.53003C4.67997 9.24003 4.67997 8.75997 4.96997 8.46997C5.25997 8.17997 5.74003 8.17997 6.03003 8.46997L7.83002 10.27L11.97 6.14001C12.26 5.84001 12.74 5.84001 13.03 6.14001C13.32 6.43001 13.32 6.90001 13.03 7.20001Z" fill="#076988"/>
</svg>
