<svg width="22" height="18" viewBox="0 0 22 18" fill="none" xmlns="http://www.w3.org/2000/svg">
<path d="M2.75 0.75L18.75 16.75M12.75 10.9861C12.2192 11.4611 11.5184 11.75 10.75 11.75C9.09315 11.75 7.75 10.4069 7.75 8.75C7.75 7.98165 8.03885 7.28076 8.51389 6.75M18.3578 12.3577C18.9291 11.8603 19.4402 11.3599 19.8803 10.8969C21.0399 9.67683 21.0399 7.82317 19.8803 6.6031C17.9245 4.54533 14.5655 1.75 10.75 1.75C9.85863 1.75 8.99217 1.90256 8.1627 2.16264M5.25 3.55338C3.79144 4.48444 2.54764 5.62678 1.61971 6.6031C0.460098 7.82317 0.460098 9.67683 1.61971 10.8969C3.57549 12.9547 6.93448 15.75 10.75 15.75C12.6181 15.75 14.3767 15.0799 15.9148 14.1544" stroke="#28303F" stroke-width="1.5" stroke-linecap="round"/>
</svg>
