<svg width="20" height="16" viewBox="0 0 20 16" fill="none" xmlns="http://www.w3.org/2000/svg">
<path d="M18.9855 5.88794C17.6725 3.68894 14.7254 0 9.75036 0C4.77536 0 1.82825 3.68894 0.51525 5.88794C-0.17175 7.03594 -0.17175 8.46306 0.51525 9.61206C1.82825 11.8111 4.77536 15.5 9.75036 15.5C14.7254 15.5 17.6725 11.8111 18.9855 9.61206C19.6725 8.46306 19.6725 7.03694 18.9855 5.88794ZM17.6984 8.84204C16.5484 10.768 13.9854 14 9.75036 14C5.51536 14 2.95236 10.769 1.80236 8.84204C1.40036 8.16804 1.40036 7.33098 1.80236 6.65698C2.95236 4.73098 5.51536 1.49902 9.75036 1.49902C13.9854 1.49902 16.5484 4.72998 17.6984 6.65698C18.1014 7.33198 18.1014 8.16804 17.6984 8.84204ZM9.75036 3.5C7.40636 3.5 5.50036 5.407 5.50036 7.75C5.50036 10.093 7.40636 12 9.75036 12C12.0944 12 14.0004 10.093 14.0004 7.75C14.0004 5.407 12.0944 3.5 9.75036 3.5ZM9.75036 10.5C8.23336 10.5 7.00036 9.267 7.00036 7.75C7.00036 6.233 8.23336 5 9.75036 5C11.2674 5 12.5004 6.233 12.5004 7.75C12.5004 9.267 11.2674 10.5 9.75036 10.5Z" fill="#17181D"/>
</svg>
