<svg width="22px" height="16px" viewBox="0 0 22 16" fill="none" xmlns="http://www.w3.org/2000/svg" transform="rotate(0) scale(1, 1)">
<path d="M19.8803 5.6031C21.0399 6.82317 21.0399 8.67683 19.8803 9.8969C17.9245 11.9547 14.5655 14.75 10.75 14.75C6.93448 14.75 3.57549 11.9547 1.61971 9.8969C0.460098 8.67683 0.460098 6.82317 1.61971 5.6031C3.57549 3.54533 6.93448 0.75 10.75 0.75C14.5655 0.75 17.9245 3.54533 19.8803 5.6031Z" stroke="#ffffff" stroke-width="1.5"/>
<path d="M13.75 7.75C13.75 9.40685 12.4069 10.75 10.75 10.75C9.09315 10.75 7.75 9.40685 7.75 7.75C7.75 6.09315 9.09315 4.75 10.75 4.75C12.4069 4.75 13.75 6.09315 13.75 7.75Z" stroke="#ffffff" stroke-width="1.5"/>
</svg>