<svg width="20" height="20" viewBox="0 0 20 20" fill="none" xmlns="http://www.w3.org/2000/svg">
<path d="M16.125 4H7.375C5.198 4 4 5.198 4 7.375V16.125C4 18.302 5.198 19.5 7.375 19.5H16.125C18.302 19.5 19.5 18.302 19.5 16.125V7.375C19.5 5.198 18.302 4 16.125 4ZM18 16.125C18 17.457 17.457 18 16.125 18H7.375C6.043 18 5.5 17.457 5.5 16.125V7.375C5.5 6.043 6.043 5.5 7.375 5.5H16.125C17.457 5.5 18 6.043 18 7.375V16.125ZM1.5 3.37V12.13C1.5 13.328 1.98309 13.623 2.14209 13.721C2.49609 13.937 2.60589 14.399 2.38989 14.752C2.24789 14.983 2.00202 15.11 1.74902 15.11C1.61602 15.11 1.47991 15.074 1.35791 15C0.45691 14.448 0 13.483 0 12.13V3.37C0 1.228 1.22912 0 3.37012 0H12.1299C13.8149 0 14.62 0.738971 15 1.35797C15.216 1.71097 15.105 2.17298 14.752 2.38898C14.398 2.60598 13.9379 2.49399 13.7209 2.14099C13.6239 1.98199 13.3279 1.49902 12.1299 1.49902H3.37012C2.04212 1.50002 1.5 2.042 1.5 3.37Z" fill="#687387"/>
</svg>
