<svg width="32" height="32" viewBox="0 0 32 32" fill="none" xmlns="http://www.w3.org/2000/svg">
<path d="M27.5999 13H4.40007C4.17873 13 4 13.1787 4 13.4001V24C4 26.6667 5.33333 28 8 28H24C26.6667 28 28 26.6667 28 24V13.4001C28 13.1787 27.8213 13 27.5999 13ZM10.6934 24C9.95736 24 9.35319 23.4027 9.35319 22.6667C9.35319 21.9307 9.94401 21.3333 10.68 21.3333H10.6934C11.4307 21.3333 12.0267 21.9307 12.0267 22.6667C12.0267 23.4027 11.4294 24 10.6934 24ZM10.6934 18.6667C9.95736 18.6667 9.35319 18.0693 9.35319 17.3333C9.35319 16.5973 9.94401 16 10.68 16H10.6934C11.4307 16 12.0267 16.5973 12.0267 17.3333C12.0267 18.0693 11.4294 18.6667 10.6934 18.6667ZM16.0267 24C15.2907 24 14.6865 23.4027 14.6865 22.6667C14.6865 21.9307 15.2773 21.3333 16.0133 21.3333H16.0267C16.764 21.3333 17.36 21.9307 17.36 22.6667C17.36 23.4027 16.7627 24 16.0267 24ZM16.0267 18.6667C15.2907 18.6667 14.6865 18.0693 14.6865 17.3333C14.6865 16.5973 15.2773 16 16.0133 16H16.0267C16.764 16 17.36 16.5973 17.36 17.3333C17.36 18.0693 16.7627 18.6667 16.0267 18.6667ZM21.36 24C20.624 24 20.0199 23.4027 20.0199 22.6667C20.0199 21.9307 20.6107 21.3333 21.3467 21.3333H21.36C22.0974 21.3333 22.6934 21.9307 22.6934 22.6667C22.6934 23.4027 22.096 24 21.36 24ZM21.36 18.6667C20.624 18.6667 20.0199 18.0693 20.0199 17.3333C20.0199 16.5973 20.6107 16 21.3467 16H21.36C22.0974 16 22.6934 16.5973 22.6934 17.3333C22.6934 18.0693 22.096 18.6667 21.36 18.6667ZM28 10V10.5999C28 10.8213 27.8213 11 27.5999 11H4.40007C4.17873 11 4 10.8213 4 10.5999V10C4 7.33333 5.33333 6 8 6H9.66667V4C9.66667 3.45333 10.12 3 10.6667 3C11.2133 3 11.6667 3.45333 11.6667 4V6H20.3333V4C20.3333 3.45333 20.7867 3 21.3333 3C21.88 3 22.3333 3.45333 22.3333 4V6H24C26.6667 6 28 7.33333 28 10Z" fill="white" fill-opacity="0.8"/>
</svg>
