<svg width="32" height="32" viewBox="0 0 32 32" fill="none" xmlns="http://www.w3.org/2000/svg">
<path d="M23.5 4H8.5C5.5 4 4 5.5 4 8.5V23.5C4 26.5 5.5 28 8.5 28H23.5C26.5 28 28 26.5 28 23.5V8.5C28 5.5 26.5 4 23.5 4ZM20.7067 20.7067C20.512 20.9014 20.256 21 20 21C19.744 21 19.488 20.9027 19.2933 20.7067L15.2933 16.7067C15.1053 16.5187 15 16.264 15 16V9.33333C15 8.78133 15.448 8.33333 16 8.33333C16.552 8.33333 17 8.78133 17 9.33333V15.5853L20.7067 19.292C21.0974 19.684 21.0974 20.316 20.7067 20.7067Z" fill="white" fill-opacity="0.8"/>
</svg>
