<svg width="32" height="32" viewBox="0 0 32 32" fill="none" xmlns="http://www.w3.org/2000/svg">
<path d="M23.5 3H8.5C4.95333 3 3 4.95333 3 8.5V23.5C3 27.0467 4.95333 29 8.5 29H23.5C27.0467 29 29 27.0467 29 23.5V8.5C29 4.95333 27.0467 3 23.5 3ZM27 23.5C27 25.9533 25.9533 27 23.5 27H8.5C6.04667 27 5 25.9533 5 23.5V8.5C5 6.04667 6.04667 5 8.5 5H23.5C25.9533 5 27 6.04667 27 8.5V23.5ZM21.6667 16C21.6667 16.552 21.2187 17 20.6667 17H17V20.6667C17 21.2187 16.552 21.6667 16 21.6667C15.448 21.6667 15 21.2187 15 20.6667V17H11.3333C10.7813 17 10.3333 16.552 10.3333 16C10.3333 15.448 10.7813 15 11.3333 15H15V11.3333C15 10.7813 15.448 10.3333 16 10.3333C16.552 10.3333 17 10.7813 17 11.3333V15H20.6667C21.2187 15 21.6667 15.448 21.6667 16Z" fill="white"/>
</svg>
