<svg width="20" height="19" viewBox="0 0 20 19" fill="none" xmlns="http://www.w3.org/2000/svg">
<path d="M18.75 17.25H17.25V3C17.25 1 16.25 0 14.25 0H5.25C3.25 0 2.25 1 2.25 3V17.25H0.75C0.336 17.25 0 17.586 0 18C0 18.414 0.336 18.75 0.75 18.75H18.75C19.164 18.75 19.5 18.414 19.5 18C19.5 17.586 19.164 17.25 18.75 17.25ZM11.75 3.25H12.75C13.164 3.25 13.5 3.586 13.5 4C13.5 4.414 13.164 4.75 12.75 4.75H11.75C11.336 4.75 11 4.414 11 4C11 3.586 11.336 3.25 11.75 3.25ZM11.75 6.25H12.75C13.164 6.25 13.5 6.586 13.5 7C13.5 7.414 13.164 7.75 12.75 7.75H11.75C11.336 7.75 11 7.414 11 7C11 6.586 11.336 6.25 11.75 6.25ZM11.75 9.25H12.75C13.164 9.25 13.5 9.586 13.5 10C13.5 10.414 13.164 10.75 12.75 10.75H11.75C11.336 10.75 11 10.414 11 10C11 9.586 11.336 9.25 11.75 9.25ZM6.75 3.25H7.75C8.164 3.25 8.5 3.586 8.5 4C8.5 4.414 8.164 4.75 7.75 4.75H6.75C6.336 4.75 6 4.414 6 4C6 3.586 6.336 3.25 6.75 3.25ZM6.75 6.25H7.75C8.164 6.25 8.5 6.586 8.5 7C8.5 7.414 8.164 7.75 7.75 7.75H6.75C6.336 7.75 6 7.414 6 7C6 6.586 6.336 6.25 6.75 6.25ZM6.75 9.25H7.75C8.164 9.25 8.5 9.586 8.5 10C8.5 10.414 8.164 10.75 7.75 10.75H6.75C6.336 10.75 6 10.414 6 10C6 9.586 6.336 9.25 6.75 9.25ZM7.5 14.5C7.5 13.5 8 13 9 13H10.5C11.5 13 12 13.5 12 14.5V17.25H7.5V14.5Z" fill="white" fill-opacity="0.7"/>
</svg>
