<svg width="15" height="18" viewBox="0 0 15 18" fill="none" xmlns="http://www.w3.org/2000/svg">
<path d="M14.25 5.25H12C10.42 5.25 9.75 4.58 9.75 3V0.75L14.25 5.25ZM15 6.75V15C15 17 14 18 12 18H3C1 18 0 17 0 15V3C0 1 1 0 3 0H8.25V3C8.25 5.42 9.58 6.75 12 6.75H15ZM8.75 13C8.75 12.586 8.414 12.25 8 12.25H4C3.586 12.25 3.25 12.586 3.25 13C3.25 13.414 3.586 13.75 4 13.75H8C8.414 13.75 8.75 13.414 8.75 13ZM11.75 9C11.75 8.586 11.414 8.25 11 8.25H4C3.586 8.25 3.25 8.586 3.25 9C3.25 9.414 3.586 9.75 4 9.75H11C11.414 9.75 11.75 9.414 11.75 9Z" fill="white" fill-opacity="0.7"/>
</svg>
