<svg width="20" height="20" viewBox="0 0 20 20" fill="none" xmlns="http://www.w3.org/2000/svg">
<path d="M4.79999 10.75C4.94999 13.83 5.98999 16.97 7.79999 19.76C3.55999 18.82 0.33 15.19 0 10.75H4.79999ZM7.79999 0.23999C3.55999 1.17999 0.33 4.81 0 9.25H4.79999C4.94999 6.17 5.98999 3.02999 7.79999 0.23999ZM10.17 0H9.76999L9.47 0.429993C7.57 3.12999 6.45999 6.23 6.29999 9.25H13.64C13.48 6.23 12.37 3.12999 10.47 0.429993L10.17 0ZM6.29999 10.75C6.45999 13.77 7.57 16.87 9.47 19.57L9.76999 20H10.17L10.47 19.57C12.37 16.87 13.48 13.77 13.64 10.75H6.29999ZM15.14 10.75C14.99 13.83 13.95 16.97 12.14 19.76C16.38 18.82 19.61 15.19 19.94 10.75H15.14ZM19.94 9.25C19.61 4.81 16.38 1.17999 12.14 0.23999C13.95 3.02999 14.99 6.17 15.14 9.25H19.94Z" fill="white" fill-opacity="0.7"/>
</svg>
