<svg width="21" height="19" viewBox="0 0 21 19" fill="none" xmlns="http://www.w3.org/2000/svg">
<path d="M18.127 6.25195C17.823 7.20695 17.0431 7.98201 16.0861 8.28101C14.5381 8.76501 13.066 8.10101 12.33 6.93201C12.272 6.84001 12.276 6.72403 12.329 6.62903C12.764 5.85303 13.011 4.957 13.011 4C13.011 3.668 12.9819 3.34398 12.924 3.02698C12.905 2.92298 12.9369 2.81497 13.0179 2.74597C13.5729 2.27497 14.291 2 15.061 2C17.177 2 18.827 4.05095 18.127 6.25195ZM16.61 9.78003H14.63C14.46 9.78003 14.33 9.90996 14.33 10.08C14.33 10.16 14.36 10.24 14.42 10.29C14.43 10.3 14.44 10.3099 14.45 10.3199C15.85 11.6699 16.5 13.6 16.5 15.52C16.5 15.89 16.48 16.25 16.42 16.58C16.41 16.624 16.407 16.661 16.407 16.701C16.407 16.871 16.54 17 16.7 17H18.16C19.99 17 21 16.0001 21 14.1801C21 12.1501 19.85 9.78003 16.61 9.78003ZM7.51001 0C5.30001 0 3.51001 1.79 3.51001 4C3.51001 6.21 5.30001 8 7.51001 8C9.71001 8 11.51 6.21 11.51 4C11.51 1.79 9.71001 0 7.51001 0ZM9.5 10H5.5C1.44 10 0 12.97 0 15.52C0 17.8 1.21 19 3.5 19H11.5C13.79 19 15 17.8 15 15.52C15 12.97 13.56 10 9.5 10Z" fill="white" fill-opacity="0.7"/>
</svg>
