<svg width="24" height="24" viewBox="0 0 24 24" fill="none" xmlns="http://www.w3.org/2000/svg">
<path d="M12.0197 6C10.9157 6 10.0146 5.104 10.0146 4C10.0146 2.896 10.9046 2 12.0096 2H12.0197C13.1237 2 14.0197 2.896 14.0197 4C14.0197 5.104 13.1247 6 12.0197 6ZM14.0197 12C14.0197 10.896 13.1237 10 12.0197 10H12.0096C10.9056 10 10.0146 10.896 10.0146 12C10.0146 13.104 10.9147 14 12.0197 14C13.1247 14 14.0197 13.104 14.0197 12ZM14.0197 20C14.0197 18.896 13.1237 18 12.0197 18H12.0096C10.9056 18 10.0146 18.896 10.0146 20C10.0146 21.104 10.9147 22 12.0197 22C13.1247 22 14.0197 21.104 14.0197 20Z" fill="white"/>
</svg>
