<svg width="20" height="20" viewBox="0 0 20 20" fill="none" xmlns="http://www.w3.org/2000/svg">
<path d="M0.75 19.5C0.653 19.5 0.555891 19.481 0.462891 19.443C0.182891 19.327 0 19.053 0 18.75V3.75C0 1.332 1.332 0 3.75 0H15.75C18.168 0 19.5 1.332 19.5 3.75V12.75C19.5 15.168 18.168 16.5 15.75 16.5H4.06104L1.28101 19.28C1.13701 19.424 0.945 19.5 0.75 19.5ZM3.75 1.5C2.173 1.5 1.5 2.173 1.5 3.75V16.939L3.21997 15.219C3.36097 15.078 3.551 14.999 3.75 14.999H15.75C17.327 14.999 18 14.326 18 12.749V3.74902C18 2.17202 17.327 1.49902 15.75 1.49902H3.75V1.5ZM14.5 6.25C14.5 5.836 14.164 5.5 13.75 5.5H5.75C5.336 5.5 5 5.836 5 6.25C5 6.664 5.336 7 5.75 7H13.75C14.164 7 14.5 6.664 14.5 6.25ZM11.5 10.25C11.5 9.836 11.164 9.5 10.75 9.5H5.75C5.336 9.5 5 9.836 5 10.25C5 10.664 5.336 11 5.75 11H10.75C11.164 11 11.5 10.664 11.5 10.25Z" fill="#076988"/>
</svg>
