<svg width="24" height="26" viewBox="0 0 24 26" fill="none" xmlns="http://www.w3.org/2000/svg">
<path d="M9.42882 25.9987C6.88215 25.9987 4.51014 25.0266 2.7488 23.2613C-0.965863 19.536 -0.908274 13.4173 2.87706 9.62264L10.5144 1.96399C11.7771 0.697323 13.4582 0 15.2449 0C17.0316 0 18.713 0.697323 19.9757 1.96399C22.581 4.57732 22.581 8.82933 19.9757 11.4427L12.3009 19.1373C10.8502 20.5933 8.31841 20.5947 6.86241 19.1373C5.36508 17.636 5.36508 15.1933 6.86241 13.692L13.6036 6.93201C13.9943 6.54134 14.6277 6.54 15.0183 6.93066C15.4103 7.32 15.4103 7.95334 15.0209 8.34534L8.27973 15.1053C7.55839 15.828 7.55839 17.004 8.27973 17.7266C8.97439 18.4253 10.1902 18.424 10.8849 17.7266L18.5597 10.032C20.389 8.19732 20.389 5.21199 18.5597 3.37732C16.789 1.60132 13.7024 1.60132 11.9317 3.37732L4.29438 11.036C1.33571 14.0013 1.27812 18.9547 4.16612 21.8507C5.54879 23.2373 7.41682 24 9.42882 24C11.4915 24 13.5008 23.1707 14.9435 21.724L21.6463 15.0013C22.0356 14.6107 22.669 14.6093 23.061 15C23.453 15.3893 23.4529 16.0227 23.0636 16.4147L16.3608 23.1373C14.5448 24.9547 12.0181 25.9987 9.42882 25.9987Z" fill="#17181D"/>
</svg>
