<svg width="60" height="60" viewBox="0 0 60 60" fill="none" xmlns="http://www.w3.org/2000/svg">
<path d="M39.6264 0H8.53137C7.66565 0 6.96387 0.701786 6.96387 2.06357V58.9286C6.96387 59.2982 7.66565 60 8.53137 60H51.4678C52.3335 60 53.0353 59.2982 53.0353 58.9286V13.905C53.0353 13.1593 52.9356 12.9193 52.7599 12.7425L40.2928 0.275357C40.116 0.0996429 39.876 0 39.6264 0Z" fill="#E9E9E0"/>
<path d="M40.1777 0.161621V12.857H52.8731L40.1777 0.161621Z" fill="#D9D7CA"/>
<path d="M20.9076 35.7042C20.5347 35.7042 20.1769 35.5832 19.8715 35.3549C18.7562 34.5182 18.6061 33.5871 18.6769 32.9528C18.8719 31.2085 21.0286 29.3828 25.0894 27.5228C26.7008 23.9914 28.234 19.6403 29.1479 16.0049C28.0787 13.6778 27.0394 10.6585 27.7969 8.88744C28.0626 8.26708 28.3936 7.79137 29.0119 7.58565C29.2561 7.50422 29.8733 7.40137 30.1004 7.40137C30.6404 7.40137 31.1151 8.09672 31.4515 8.5253C31.7676 8.92815 32.4844 9.78208 31.0519 15.8132C32.4962 18.796 34.5426 21.8346 36.5033 23.9153C37.9079 23.6614 39.1165 23.5317 40.1012 23.5317C41.779 23.5317 42.7958 23.9228 43.2104 24.7285C43.5533 25.3949 43.4129 26.1739 42.7926 27.0428C42.1958 27.8774 41.3729 28.3189 40.414 28.3189C39.1112 28.3189 37.594 27.496 35.9022 25.8707C32.8626 26.506 29.3129 27.6396 26.4436 28.8942C25.5479 30.7949 24.6897 32.326 23.8904 33.4489C22.7922 34.9864 21.8451 35.7042 20.9076 35.7042ZM23.7597 30.2121C21.4701 31.4989 20.5369 32.5564 20.4694 33.1521C20.4586 33.2507 20.4297 33.5099 20.9311 33.8935C21.0908 33.8432 22.0229 33.4178 23.7597 30.2121ZM38.3708 25.4528C39.244 26.1246 39.4572 26.4642 40.0283 26.4642C40.279 26.4642 40.9937 26.4535 41.3247 25.9917C41.4844 25.7678 41.5465 25.6242 41.5711 25.5471C41.4394 25.4774 41.2647 25.336 40.3122 25.336C39.7712 25.3371 39.0908 25.3607 38.3708 25.4528ZM30.3672 18.4007C29.6012 21.0514 28.5897 23.9132 27.5022 26.5049C29.7415 25.636 32.1758 24.8774 34.4622 24.3407C33.0158 22.6607 31.5704 20.5628 30.3672 18.4007ZM29.7169 9.33422C29.6119 9.36958 28.2919 11.2167 29.8197 12.7799C30.8365 10.5139 29.7629 9.31922 29.7169 9.33422Z" fill="#CC4B4C"/>
<path d="M51.4678 59.9999H8.53137C7.66565 59.9999 6.96387 59.2981 6.96387 58.4324V41.7856H53.0353V58.4324C53.0353 59.2981 52.3335 59.9999 51.4678 59.9999Z" fill="#CC4B4C"/>
<path d="M18.6264 56.7859H16.8682V45.9902H19.9732C20.4317 45.9902 20.886 46.0631 21.3349 46.2099C21.7839 46.3567 22.1867 46.5763 22.5435 46.8688C22.9003 47.1613 23.1885 47.5159 23.4082 47.9306C23.6278 48.3452 23.7382 48.8113 23.7382 49.3299C23.7382 49.8774 23.6449 50.3724 23.4596 50.817C23.2742 51.2617 23.0149 51.6356 22.6828 51.9377C22.3507 52.2399 21.9499 52.4745 21.4817 52.6406C21.0135 52.8067 20.4949 52.8892 19.9292 52.8892H18.6253L18.6264 56.7859ZM18.6264 47.3231V51.6002H20.2378C20.4521 51.6002 20.6642 51.5638 20.8753 51.4899C21.0853 51.417 21.2782 51.297 21.4539 51.1309C21.6296 50.9649 21.771 50.7335 21.8782 50.4356C21.9853 50.1377 22.0389 49.7692 22.0389 49.3299C22.0389 49.1542 22.0142 48.9506 21.966 48.7224C21.9167 48.4931 21.8171 48.2735 21.666 48.0635C21.5139 47.8535 21.3017 47.6777 21.0285 47.5363C20.7553 47.3949 20.3932 47.3242 19.9442 47.3242L18.6264 47.3231Z" fill="white"/>
<path d="M34.5198 51.0881C34.5198 51.9763 34.4244 52.7359 34.2337 53.3659C34.043 53.9959 33.8019 54.5231 33.5084 54.9484C33.2148 55.3738 32.8859 55.7081 32.5194 55.9524C32.153 56.1967 31.7994 56.3788 31.4576 56.502C31.1159 56.6242 30.803 56.7024 30.5201 56.7367C30.2373 56.7688 30.0273 56.7859 29.8901 56.7859H25.8037V45.9902H29.0555C29.9641 45.9902 30.7623 46.1349 31.4501 46.422C32.138 46.7092 32.7101 47.0938 33.1644 47.5717C33.6187 48.0495 33.9573 48.5949 34.1823 49.2045C34.4073 49.8152 34.5198 50.4431 34.5198 51.0881ZM29.3051 55.497C30.4966 55.497 31.3559 55.1167 31.883 54.3549C32.4101 53.5931 32.6737 52.4895 32.6737 51.0442C32.6737 50.5952 32.6201 50.1506 32.513 49.7113C32.4048 49.272 32.198 48.8745 31.8905 48.5177C31.583 48.1609 31.1651 47.8727 30.638 47.6531C30.1109 47.4335 29.4273 47.3231 28.5873 47.3231H27.5619V55.497H29.3051Z" fill="white"/>
<path d="M38.8565 47.3231V50.7217H43.3683V51.9227H38.8565V56.7859H37.0693V45.9902H43.8215V47.3231H38.8565Z" fill="white"/>
</svg>
