<svg width="20" height="20" viewBox="0 0 20 20" fill="none" xmlns="http://www.w3.org/2000/svg">
<path d="M15.375 0H4.125C1.465 0 0 1.465 0 4.125V15.375C0 18.035 1.465 19.5 4.125 19.5H15.375C18.035 19.5 19.5 18.035 19.5 15.375V4.125C19.5 1.465 18.035 0 15.375 0ZM18 15.375C18 17.215 17.215 18 15.375 18H4.125C2.285 18 1.5 17.215 1.5 15.375V4.125C1.5 2.285 2.285 1.5 4.125 1.5H15.375C17.215 1.5 18 2.285 18 4.125V15.375ZM14 9.75C14 10.164 13.664 10.5 13.25 10.5H10.5V13.25C10.5 13.664 10.164 14 9.75 14C9.336 14 9 13.664 9 13.25V10.5H6.25C5.836 10.5 5.5 10.164 5.5 9.75C5.5 9.336 5.836 9 6.25 9H9V6.25C9 5.836 9.336 5.5 9.75 5.5C10.164 5.5 10.5 5.836 10.5 6.25V9H13.25C13.664 9 14 9.336 14 9.75Z" fill="white"/>
</svg>
