<svg width="25" height="24" viewBox="0 0 25 24" fill="none" xmlns="http://www.w3.org/2000/svg">
<path d="M21.1632 14.6C20.2332 14.06 19.6632 13.07 19.6632 12C19.6632 10.93 20.2332 9.93999 21.1632 9.39999C21.3232 9.29999 21.3833 9.1 21.2833 8.94L19.6133 6.06C19.5533 5.95 19.4433 5.89001 19.3333 5.89001C19.2733 5.89001 19.2132 5.91 19.1632 5.94C18.7032 6.2 18.1832 6.34 17.6632 6.34C17.1332 6.34 16.6132 6.19999 16.1432 5.92999C15.2132 5.38999 14.6432 4.41 14.6432 3.34C14.6432 3.15 14.4933 3 14.3133 3H10.3532C10.1732 3 10.0233 3.15 10.0233 3.34C10.0233 4.41 9.45325 5.38999 8.52325 5.92999C8.05325 6.19999 7.53327 6.34 7.00327 6.34C6.48327 6.34 5.96327 6.2 5.50327 5.94C5.34327 5.84 5.14325 5.9 5.05325 6.06L3.37326 8.94C3.34326 8.99 3.33325 9.05001 3.33325 9.10001C3.33325 9.22001 3.39327 9.32999 3.50327 9.39999C4.43327 9.93999 5.00327 10.92 5.00327 11.99C5.00327 13.07 4.43324 14.06 3.51324 14.6H3.50327C3.34327 14.7 3.28324 14.9 3.38324 15.06L5.05325 17.94C5.11325 18.05 5.22325 18.11 5.33325 18.11C5.39325 18.11 5.45327 18.09 5.50327 18.06C6.44327 17.53 7.59325 17.53 8.52325 18.07C9.44325 18.61 10.0132 19.59 10.0132 20.66C10.0132 20.85 10.1632 21 10.3532 21H14.3133C14.4933 21 14.6432 20.85 14.6432 20.66C14.6432 19.59 15.2132 18.61 16.1432 18.07C16.6132 17.8 17.1332 17.66 17.6632 17.66C18.1832 17.66 18.7032 17.8 19.1632 18.06C19.3232 18.16 19.5233 18.1 19.6133 17.94L21.2932 15.06C21.3232 15.01 21.3333 14.95 21.3333 14.9C21.3333 14.78 21.2732 14.67 21.1632 14.6ZM12.3333 15C10.6733 15 9.33325 13.66 9.33325 12C9.33325 10.34 10.6733 9 12.3333 9C13.9933 9 15.3333 10.34 15.3333 12C15.3333 13.66 13.9933 15 12.3333 15Z" fill="white" fill-opacity="0.7"/>
</svg>
