<svg width="24" height="24" viewBox="0 0 24 24" fill="none" xmlns="http://www.w3.org/2000/svg">
<path opacity="0.4" d="M20.3908 17.688C20.3718 17.665 18.4948 15.282 18.4948 12.5V8.995C18.4948 5.414 15.5808 2.5 11.9998 2.5C8.4188 2.5 5.5048 5.414 5.5048 8.995V12.5C5.5048 15.281 3.62881 17.664 3.60881 17.688C3.48881 17.838 3.46581 18.044 3.54881 18.217C3.63181 18.39 3.80679 18.5 3.99879 18.5H19.9988C20.1908 18.5 20.3658 18.39 20.4488 18.217C20.5338 18.043 20.5098 17.838 20.3908 17.688Z" fill="#17181D"/>
<path d="M3.00092 8.75C2.97592 8.75 2.9509 8.749 2.9249 8.746C2.5129 8.705 2.21191 8.337 2.25391 7.925C2.45591 5.902 3.27393 4.02701 4.61793 2.50301C4.89093 2.19201 5.36592 2.162 5.67692 2.437C5.98792 2.711 6.01693 3.185 5.74293 3.496C4.60793 4.782 3.91692 6.36501 3.74592 8.07401C3.70792 8.46101 3.38092 8.75 3.00092 8.75Z" fill="#17181D"/>
<path d="M20.9988 8.74988C20.6188 8.74988 20.2918 8.46088 20.2538 8.07488C20.0828 6.36588 19.3928 4.78287 18.2568 3.49687C17.9828 3.18587 18.0128 2.71188 18.3228 2.43788C18.6338 2.16288 19.1078 2.19388 19.3818 2.50388C20.7258 4.02688 21.5438 5.90187 21.7458 7.92587C21.7878 8.33787 21.4868 8.70587 21.0748 8.74687C21.0488 8.74887 21.0238 8.74988 20.9988 8.74988Z" fill="#17181D"/>
<path d="M14.164 19.751C14.075 19.596 13.91 19.5 13.73 19.5H10.27C10.091 19.5 9.92603 19.596 9.83603 19.751C9.74603 19.906 9.74805 20.098 9.83805 20.252C10.294 21.033 11.102 21.5 12 21.5C12.898 21.5 13.706 21.033 14.162 20.252C14.252 20.098 14.253 19.906 14.164 19.751Z" fill="#17181D"/>
</svg>
