<svg width="18" height="18" viewBox="0 0 18 18" fill="none" xmlns="http://www.w3.org/2000/svg">
<path opacity="0.3" d="M9.00014 16.4999L8.25014 14.2499H3.00014C2.58764 14.2499 2.23514 14.1029 1.94114 13.8097C1.79915 13.6725 1.68677 13.5077 1.61092 13.3254C1.53507 13.1432 1.49737 12.9473 1.50014 12.7499V2.99991C1.50014 2.58741 1.64714 2.23416 1.94114 1.94016C2.07822 1.79832 2.24291 1.68609 2.42505 1.61037C2.60719 1.53465 2.80291 1.49705 3.00014 1.49991H7.50014L8.15639 3.74991H15.0001C15.4374 3.74991 15.7974 3.89016 16.0786 4.17141C16.3599 4.45266 16.5001 4.81266 16.5001 5.24991V14.9999C16.5036 15.1957 16.4681 15.3902 16.3958 15.5721C16.3234 15.754 16.2156 15.9198 16.0786 16.0597C15.7974 16.3529 15.4374 16.4999 15.0001 16.4999H9.00014Z" fill="#17181D"/>
<path d="M9.7501 15.75H15.0001C15.2251 15.75 15.4066 15.678 15.5438 15.534C15.6119 15.4631 15.6651 15.3793 15.7005 15.2877C15.7359 15.196 15.7528 15.0982 15.7501 15V5.25C15.7501 5.025 15.6811 4.8435 15.5438 4.70625C15.4066 4.569 15.2251 4.5 15.0001 4.5H8.38135L9.2626 7.5375H10.7438V6.75H11.5126V7.5375H14.2501V8.30625H13.2938C13.1651 8.79046 12.9761 9.2566 12.7313 9.69375C12.4824 10.1422 12.187 10.5633 11.8501 10.95L13.8938 12.9562L13.3501 13.5L11.3251 11.475L10.6501 12.1688L11.2501 14.25L9.7501 15.75Z" fill="#17181D"/>
<path d="M11.3252 10.3688C11.6754 9.95634 11.9409 9.56259 12.1224 9.18759C12.3032 8.81259 12.4254 8.51859 12.4877 8.30634H9.50645L9.73145 9.09384H10.4814C10.5812 9.28134 10.7004 9.48459 10.8377 9.70359C10.9749 9.92184 11.1377 10.1438 11.3252 10.3688ZM10.3877 11.3251L10.8002 10.9313C10.6341 10.7304 10.4748 10.5241 10.3224 10.3126C10.1737 10.1055 10.0329 9.89284 9.9002 9.67509L10.3877 11.3251ZM5.3627 10.9501C6.2252 10.9501 6.9347 10.6726 7.4912 10.1161C8.04695 9.55959 8.3252 8.83734 8.3252 7.95009C8.32551 7.85926 8.3225 7.76845 8.3162 7.67784C8.30884 7.59224 8.29302 7.50757 8.26895 7.42509H5.30645V8.58759H6.9752C6.88823 8.9191 6.68517 9.20839 6.40295 9.40284C6.1217 9.59709 5.7812 9.69384 5.38145 9.69384C4.89395 9.69384 4.47545 9.51909 4.1252 9.16884C3.77495 8.81859 3.6002 8.38734 3.6002 7.87509C3.6002 7.36284 3.77495 6.93159 4.1252 6.58134C4.28761 6.41264 4.48288 6.27903 4.69895 6.18873C4.91501 6.09843 5.14729 6.05338 5.38145 6.05634C5.60645 6.05634 5.8187 6.09684 6.01895 6.17784C6.2192 6.25959 6.39995 6.38109 6.5627 6.54384L7.48145 5.66259C7.21895 5.38734 6.90395 5.17509 6.53495 5.02509C6.16259 4.87443 5.76437 4.798 5.3627 4.80009C4.52495 4.80009 3.8102 5.09709 3.2162 5.69034C2.6222 6.28434 2.3252 7.01259 2.3252 7.87509C2.3252 8.73759 2.6222 9.46509 3.2162 10.0591C3.80945 10.6531 4.52495 10.9501 5.3627 10.9501Z" fill="#17181D"/>
</svg>
